<?xml version="1.0" encoding="utf-8"?>
<!-- Generator: Adobe Illustrator 19.0.0, SVG Export Plug-In . SVG Version: 6.00 Build 0)  -->
<svg version="1.1" id="Layer_1" xmlns="http://www.w3.org/2000/svg" xmlns:xlink="http://www.w3.org/1999/xlink" x="0px" y="0px"
	 viewBox="-256 387 99 20" style="enable-background:new -256 387 99 20;" xml:space="preserve">
<style type="text/css">
	.st0{opacity:0.94;fill:#E6E7E8;}
	.st1{fill:#BE1E2D;}
	.st2{fill:#180E14;}
</style>
<g>
	<circle id="XMLID_122_" class="st0" cx="-177.4" cy="399.6" r="6.4"/>
	<circle id="XMLID_2_" class="st1" cx="-177.4" cy="399.6" r="2.7"/>
	<g id="XMLID_3_">
		<path id="XMLID_202_" class="st2" d="M-202,396.3c0.7-1.2,1.4-2.2,2-3.3c0.1-0.1,0.3-0.2,0.4-0.1c1.3,0.4,2.4,1.1,3.3,2.3
			c1.5,1.9,3,3.8,4.6,5.6c0.4,0.5,1,0.9,1.6,1.2c1.2,0.7,2.6,0.5,3.6-0.5c0.9-0.9,1.2-2.3,0.6-3.5c-0.6-1.2-1.8-1.9-3.1-1.7
			c-1.4,0.2-2.4,1.2-2.7,2.6c0,0.1-0.1,0.2-0.1,0.4c-0.9-1-1.8-2-2.6-3c-0.1-0.1-0.1-0.3,0-0.5c1.9-3.1,6-4.1,9.2-2.3
			c3.1,1.8,4.2,5.9,2.5,9.1c-1.6,2.9-5.2,4.2-8.6,3c-1.6-0.6-2.9-1.5-3.9-2.8c-1.1-1.5-2.2-3-3.3-4.5
			C-199.3,397-200.3,396.2-202,396.3z"/>
		<path id="XMLID_201_" class="st2" d="M-217.2,393.6c-1.4,0-2.7,0-4.1,0c0-1.5,0.5-2.7,1.7-3.7c1-0.8,2.1-1.1,3.3-1.2
			c1.4-0.1,2.8-0.1,4.1,0.5c2,0.8,3,2.7,2.5,4.8c-0.2,1-0.8,1.7-1.7,2.1c-0.2,0.1-0.4,0.2-0.7,0.3c0.1,0.1,0.2,0.1,0.2,0.1
			c2.3,0.6,3.2,2.6,2.9,4.8c-0.3,2.6-2.3,4.5-5,4.8c-1.6,0.2-3.1,0.1-4.5-0.6c-2.1-1-3.4-3.2-3.1-5.4c1.4,0,2.8,0,4.2,0
			c0.4,2,0.9,2.6,2.3,2.5c1.2-0.1,2-0.8,2-2c0-1.7-0.4-2.1-3-2.5c0-0.4,0-0.9,0-1.3c0-0.4,0-0.8,0-1.3c0.4-0.1,0.7-0.1,1.1-0.1
			c1-0.2,1.6-0.9,1.6-1.8c0-0.8-0.5-1.5-1.3-1.7C-216,391.6-217,392.2-217.2,393.6z"/>
		<path id="XMLID_200_" class="st2" d="M-198.3,389.1c-0.2,0.3-0.3,0.4-0.4,0.6c-1.6,2.4-3.2,4.9-4.7,7.3c-0.6,1-1,2.1-0.8,3.3
			c0.2,1,0.8,1.7,1.8,2c1,0.3,2,0.2,2.8-0.6c0.4-0.5,0.7-1,1.1-1.6c0.7,1,1.5,2,2.3,3c0.1,0.1,0,0.3-0.1,0.4
			c-1.6,2.1-4.4,3.1-6.8,2.4c-2.7-0.8-4.8-3.2-5.1-5.8c-0.2-1.5,0.2-2.9,0.9-4.2c1.3-2.2,2.7-4.4,4-6.5c0.1-0.1,0.2-0.3,0.4-0.3
			C-201.3,389.1-199.9,389.1-198.3,389.1z"/>
	</g>
	<path id="XMLID_9_" class="st2" d="M-256.2,393.4h3.7l3,7.3l3.5-7.6h1.2l3.5,7.4l3-7.2h3.7l-6,13.2h-1.2l-3.7-7.5l-3.7,7.5h-1.1
		L-256.2,393.4z"/>
	<path id="XMLID_11_" class="st2" d="M-235.5,399.8c0-1.9,0.6-3.5,1.9-4.8c1.3-1.3,2.9-1.9,4.8-1.9c1.8,0,3.2,0.6,4.3,1.7
		c1.1,1.1,1.7,2.6,1.7,4.2c0,0.6-0.1,1.2-0.2,1.9h-9c0.2,0.8,0.6,1.4,1.3,1.9c0.6,0.4,1.4,0.7,2.3,0.7c1.3,0,2.5-0.4,3.6-1.3
		l1.4,2.4c-1.5,1.3-3.2,1.9-5.1,1.9c-1.3,0-2.5-0.3-3.6-0.9c-1.1-0.6-1.9-1.4-2.5-2.4C-235.2,402.2-235.5,401.1-235.5,399.8z
		 M-232,398.5h5.8c0-0.8-0.3-1.4-0.8-1.9c-0.5-0.5-1.2-0.7-2-0.7c-0.7,0-1.4,0.2-1.9,0.7C-231.4,397.1-231.8,397.7-232,398.5z"/>
	<g id="XMLID_44_">
		<path id="XMLID_5_" class="st2" d="M-173.7,402.6c0-1.2,0.4-2.1,1.3-2.7c0.9-0.7,2.1-1,3.5-1h3.2v-0.6c0-0.7-0.2-1.3-0.6-1.7
			c-0.4-0.4-1-0.6-1.8-0.6c-0.7,0-1.2,0.1-1.8,0.4c-0.5,0.3-1.1,0.7-1.6,1.3l-1.8-2.2c1.5-1.8,3.3-2.6,5.6-2.6c1.7,0,3,0.5,4,1.4
			c1,0.9,1.5,2.3,1.5,4.1v7.6h-3.2v-1.2c-1,1-2.3,1.6-3.9,1.6c-1.4,0-2.4-0.4-3.2-1.1C-173.3,404.6-173.7,403.7-173.7,402.6z
			 M-170.2,402.5c0,0.4,0.2,0.8,0.5,1c0.3,0.2,0.8,0.4,1.3,0.4c0.8,0,1.4-0.2,1.9-0.7c0.5-0.5,0.8-1.1,0.8-1.8v-0.2h-2.8
			C-169.6,401.2-170.2,401.6-170.2,402.5z"/>
		<path id="XMLID_8_" class="st2" d="M-161.3,389.7c0-0.6,0.2-1.1,0.7-1.6c0.4-0.4,1-0.6,1.6-0.6c0.6,0,1.1,0.2,1.6,0.6
			c0.4,0.4,0.7,0.9,0.7,1.6c0,0.6-0.2,1.1-0.7,1.5c-0.4,0.4-1,0.6-1.6,0.6c-0.6,0-1.2-0.2-1.6-0.6
			C-161.1,390.8-161.3,390.3-161.3,389.7z M-160.8,406.1v-12.8h3.5v12.8H-160.8z"/>
	</g>
</g>
</svg>
